M48
METRIC,LZ,000.000
;FILE_FORMAT=3:3
;TYPE=PLATED
;Layer: PTH_Through
;EasyEDA v6.5.22, 2023-04-09 12:07:21
;a82510d75d89424d952477dd8e89e6f5,b58ac661183547158e32f13718f6ba1e,10
;Gerber Generator version 0.2
;Holesize 1 = 0.800 mm
T01C0.800
;Holesize 2 = 0.915 mm
T02C0.915
;Holesize 3 = 1.200 mm
T03C1.200
%
G05
G90
T01
X010919Y022451G85X010925Y022451
X010919Y019914G85X010925Y019914
X010665Y009624G85X010671Y009624
X010665Y007087G85X010671Y007087
X019047Y051915G85X019053Y051915
X019047Y049378G85X019053Y049378
X010030Y045438G85X010036Y045438
X010030Y042901G85X010036Y042901
X008379Y052042G85X008385Y052042
X008379Y049505G85X008385Y049505
X029588Y052042G85X029594Y052042
X029588Y049505G85X029594Y049505
X021968Y052042G85X021974Y052042
X021968Y049505G85X021974Y049505
X010030Y039977G85X010036Y039977
X010030Y037440G85X010036Y037440
X011554Y052042G85X011560Y052042
X011554Y049505G85X011560Y049505
X010030Y034897G85X010036Y034897
X010030Y032360G85X010036Y032360
X008012Y016513
X005212Y016513
X005212Y007873
X008012Y007873
X008134Y028325
X005334Y028325
X005334Y019685
X008134Y019685
T02
X026289Y050927
X026289Y053467
X026289Y048387
X006731Y044450
X006731Y046990
X006731Y041910
X006731Y036576
X006731Y039116
X006731Y034036
X015240Y050927
X015240Y053467
X015240Y048387
X013872Y042878
X013872Y040338
X013872Y037798
X013872Y035258
X013872Y032718
X013872Y030178
X013872Y027638
X013872Y025098
X013872Y022558
X013872Y020018
X013872Y017478
X013872Y014938
X013872Y012398
X013872Y009858
X013872Y007318
X029112Y042878
X029112Y040338
X029112Y037798
X029112Y035258
X029112Y032718
X029112Y030178
X029112Y027638
X029112Y025098
X029112Y022558
X029112Y020018
X029112Y017478
X029112Y014938
X029112Y012398
X029112Y009858
X029112Y007318
T03
X025300Y058499G85X025305Y058499
X028800Y058499G85X028805Y058499
X005770Y058347G85X005775Y058347
X009270Y058347G85X009275Y058347
X012770Y058347G85X012775Y058347
X020770Y058447G85X020775Y058447
X017270Y058447G85X017275Y058447
M30
