G04 Layer: TopLayer*
G04 EasyEDA v6.5.22, 2023-04-09 12:07:21*
G04 a82510d75d89424d952477dd8e89e6f5,b58ac661183547158e32f13718f6ba1e,10*
G04 Gerber Generator version 0.2*
G04 Scale: 100 percent, Rotated: No, Reflected: No *
G04 Dimensions in millimeters *
G04 leading zeros omitted , absolute positions ,4 integer and 5 decimal *
%FSLAX45Y45*%
%MOMM*%

%ADD10C,0.2540*%
%ADD11C,1.8000*%
%ADD12R,1.5240X1.5240*%
%ADD13R,2.0320X2.0320*%
%ADD14C,2.0320*%
%ADD15R,1.8001X1.8001*%
%ADD16C,1.8001*%
%ADD17R,1.6000X1.6000*%
%ADD18C,1.6000*%
%ADD19R,1.7780X1.7780*%
%ADD20C,1.7780*%

%LPD*%
D10*
X2628900Y5242560D02*
G01*
X2755900Y5242560D01*
X2755900Y3680968D01*
X2911093Y3525773D01*
X2911093Y4287773D02*
G01*
X2819400Y4379468D01*
X2819400Y5788913D01*
X2880359Y5849873D01*
X2911093Y3271773D02*
G01*
X1727200Y4455668D01*
X1727200Y5384800D01*
X1277112Y5834634D01*
X533400Y2832607D02*
G01*
X520700Y2832607D01*
X520700Y5428234D01*
X927354Y5834634D01*
X673100Y3403600D02*
G01*
X673100Y1968500D01*
X632460Y1968500D01*
X631189Y1968500D02*
G01*
X673100Y1968500D01*
X673100Y939292D01*
X521207Y787400D01*
X1066800Y708660D02*
G01*
X1219200Y861060D01*
X1219200Y1864360D01*
X1092200Y1991360D01*
X2197105Y4950452D02*
G01*
X2382499Y4950452D01*
X2524739Y5092692D01*
X2628905Y5092692D02*
G01*
X2524739Y5092692D01*
X1003305Y3997698D02*
G01*
X1003305Y4290052D01*
X2628905Y5346692D02*
G01*
X2628905Y5242526D01*
X1905005Y5191498D02*
G01*
X1905005Y5537319D01*
X1727205Y5715119D01*
X1727205Y5844684D02*
G01*
X1727205Y5715119D01*
X2197105Y5204198D02*
G01*
X2197105Y5724796D01*
X2077217Y5844684D01*
X2959105Y4950452D02*
G01*
X3048208Y4861349D01*
X3048208Y4170773D01*
X2911200Y4033766D01*
X631271Y1968492D02*
G01*
X533405Y1968492D01*
D11*
G01*
X1092200Y2245105D03*
G01*
X1092200Y1991360D03*
G01*
X1066800Y962405D03*
G01*
X1066800Y708660D03*
D12*
G01*
X2628900Y5092700D03*
G01*
X2628900Y5346700D03*
G01*
X2628900Y4838700D03*
G01*
X673100Y4445000D03*
G01*
X673100Y4699000D03*
G01*
X673100Y4191000D03*
G01*
X673100Y3657600D03*
G01*
X673100Y3911600D03*
G01*
X673100Y3403600D03*
G01*
X1524000Y5092700D03*
G01*
X1524000Y5346700D03*
G01*
X1524000Y4838700D03*
D11*
G01*
X1905000Y5191505D03*
G01*
X1905000Y4937760D03*
G01*
X1003300Y4543805D03*
G01*
X1003300Y4290060D03*
G01*
X838200Y5204205D03*
G01*
X838200Y4950460D03*
G01*
X2959100Y5204205D03*
G01*
X2959100Y4950460D03*
G01*
X2197100Y5204205D03*
G01*
X2197100Y4950460D03*
G01*
X1003300Y3997705D03*
G01*
X1003300Y3743960D03*
G01*
X1155700Y5204205D03*
G01*
X1155700Y4950460D03*
G01*
X1003300Y3489705D03*
G01*
X1003300Y3235960D03*
D13*
G01*
X2530205Y5849868D03*
D14*
G01*
X2880243Y5849868D03*
D15*
G01*
X577225Y5834679D03*
D16*
G01*
X927237Y5834679D03*
G01*
X1277223Y5834679D03*
D14*
G01*
X2077222Y5844687D03*
D13*
G01*
X1727210Y5844687D03*
D17*
G01*
X801192Y1651330D03*
D18*
G01*
X521207Y1651330D03*
G01*
X521207Y787323D03*
G01*
X801192Y787323D03*
D17*
G01*
X813409Y2832531D03*
D18*
G01*
X533400Y2832506D03*
G01*
X533400Y1968500D03*
G01*
X813384Y1968500D03*
D19*
G01*
X1387231Y4287768D03*
D20*
G01*
X1387231Y4033768D03*
G01*
X1387231Y3779768D03*
G01*
X1387231Y3525768D03*
G01*
X1387231Y3271768D03*
G01*
X1387231Y3017768D03*
G01*
X1387231Y2763768D03*
G01*
X1387231Y2509768D03*
G01*
X1387231Y2255768D03*
G01*
X1387231Y2001768D03*
G01*
X1387231Y1747768D03*
G01*
X1387231Y1493768D03*
G01*
X1387231Y1239768D03*
G01*
X1387231Y985768D03*
G01*
X1387231Y731768D03*
G01*
X2911205Y4287768D03*
G01*
X2911205Y4033768D03*
G01*
X2911205Y3779768D03*
G01*
X2911205Y3525768D03*
G01*
X2911205Y3271768D03*
G01*
X2911205Y3017768D03*
G01*
X2911205Y2763768D03*
G01*
X2911205Y2509768D03*
G01*
X2911205Y2255768D03*
G01*
X2911205Y2001768D03*
G01*
X2911205Y1747768D03*
G01*
X2911205Y1493768D03*
G01*
X2911205Y1239768D03*
G01*
X2911205Y985768D03*
G01*
X2911205Y731768D03*
M02*
