G04 Layer: TopSilkscreenLayer*
G04 EasyEDA v6.5.22, 2023-04-09 12:07:21*
G04 a82510d75d89424d952477dd8e89e6f5,b58ac661183547158e32f13718f6ba1e,10*
G04 Gerber Generator version 0.2*
G04 Scale: 100 percent, Rotated: No, Reflected: No *
G04 Dimensions in millimeters *
G04 leading zeros omitted , absolute positions ,4 integer and 5 decimal *
%FSLAX45Y45*%
%MOMM*%

%ADD10C,0.2032*%
%ADD11C,0.1524*%
%ADD12C,0.2540*%
%ADD13C,0.2000*%
%ADD14C,0.4000*%
%ADD15C,0.0177*%

%LPD*%
D10*
X2532085Y4068922D02*
G01*
X2527513Y4078320D01*
X2518115Y4087464D01*
X2508971Y4092036D01*
X2490429Y4092036D01*
X2481285Y4087464D01*
X2471887Y4078320D01*
X2467315Y4068922D01*
X2462743Y4055206D01*
X2462743Y4032092D01*
X2467315Y4018122D01*
X2471887Y4008978D01*
X2481285Y3999834D01*
X2490429Y3995008D01*
X2508971Y3995008D01*
X2518115Y3999834D01*
X2527513Y4008978D01*
X2532085Y4018122D01*
X2532085Y4032092D01*
X2508971Y4032092D02*
G01*
X2532085Y4032092D01*
X2562565Y4092036D02*
G01*
X2562565Y3995008D01*
X2562565Y4092036D02*
G01*
X2627081Y3995008D01*
X2627081Y4092036D02*
G01*
X2627081Y3995008D01*
X2657561Y4092036D02*
G01*
X2657561Y3995008D01*
X2657561Y4092036D02*
G01*
X2690073Y4092036D01*
X2703789Y4087464D01*
X2712933Y4078320D01*
X2717759Y4068922D01*
X2722331Y4055206D01*
X2722331Y4032092D01*
X2717759Y4018122D01*
X2712933Y4008978D01*
X2703789Y3999834D01*
X2690073Y3995008D01*
X2657561Y3995008D01*
X2504399Y3544920D02*
G01*
X2504399Y3461608D01*
X2462743Y3503264D02*
G01*
X2545801Y3503264D01*
X2631653Y3558636D02*
G01*
X2585679Y3558636D01*
X2580853Y3517234D01*
X2585679Y3521806D01*
X2599395Y3526378D01*
X2613365Y3526378D01*
X2627081Y3521806D01*
X2636479Y3512408D01*
X2641051Y3498692D01*
X2641051Y3489294D01*
X2636479Y3475578D01*
X2627081Y3466434D01*
X2613365Y3461608D01*
X2599395Y3461608D01*
X2585679Y3466434D01*
X2580853Y3471006D01*
X2576281Y3480150D01*
X2671531Y3558636D02*
G01*
X2708361Y3461608D01*
X2745445Y3558636D02*
G01*
X2708361Y3461608D01*
X2462743Y4346036D02*
G01*
X2499573Y4249008D01*
X2536657Y4346036D02*
G01*
X2499573Y4249008D01*
X2567137Y4346036D02*
G01*
X2567137Y4249008D01*
X2597617Y4346036D02*
G01*
X2597617Y4249008D01*
X2597617Y4346036D02*
G01*
X2662133Y4249008D01*
X2662133Y4346036D02*
G01*
X2662133Y4249008D01*
X1028692Y3074408D02*
G01*
X1028692Y2977380D01*
X1028692Y3074408D02*
G01*
X1060950Y3074408D01*
X1074920Y3069582D01*
X1084064Y3060438D01*
X1088636Y3051294D01*
X1093462Y3037324D01*
X1093462Y3014210D01*
X1088636Y3000494D01*
X1084064Y2991096D01*
X1074920Y2981952D01*
X1060950Y2977380D01*
X1028692Y2977380D01*
X1133086Y3074408D02*
G01*
X1183886Y3074408D01*
X1156200Y3037324D01*
X1169916Y3037324D01*
X1179314Y3032752D01*
X1183886Y3028180D01*
X1188458Y3014210D01*
X1188458Y3005066D01*
X1183886Y2991096D01*
X1174742Y2981952D01*
X1160772Y2977380D01*
X1146802Y2977380D01*
X1133086Y2981952D01*
X1128514Y2986524D01*
X1123942Y2995922D01*
X1218938Y3074408D02*
G01*
X1223510Y3069582D01*
X1228082Y3074408D01*
X1223510Y3078980D01*
X1218938Y3074408D01*
X1223510Y3041896D02*
G01*
X1223510Y2977380D01*
X1003292Y2820408D02*
G01*
X1003292Y2723380D01*
X1003292Y2820408D02*
G01*
X1035550Y2820408D01*
X1049520Y2815582D01*
X1058664Y2806438D01*
X1063236Y2797294D01*
X1068062Y2783324D01*
X1068062Y2760210D01*
X1063236Y2746494D01*
X1058664Y2737096D01*
X1049520Y2727952D01*
X1035550Y2723380D01*
X1003292Y2723380D01*
X1144516Y2820408D02*
G01*
X1098542Y2755638D01*
X1167630Y2755638D01*
X1144516Y2820408D02*
G01*
X1144516Y2723380D01*
X1221224Y2787896D02*
G01*
X1212080Y2783324D01*
X1202682Y2774180D01*
X1198110Y2760210D01*
X1198110Y2751066D01*
X1202682Y2737096D01*
X1212080Y2727952D01*
X1221224Y2723380D01*
X1235194Y2723380D01*
X1244338Y2727952D01*
X1253482Y2737096D01*
X1258308Y2751066D01*
X1258308Y2760210D01*
X1253482Y2774180D01*
X1244338Y2783324D01*
X1235194Y2787896D01*
X1221224Y2787896D01*
X1054107Y1549153D02*
G01*
X1054107Y1452125D01*
X1054107Y1549153D02*
G01*
X1086365Y1549153D01*
X1100335Y1544581D01*
X1109479Y1535437D01*
X1114051Y1526039D01*
X1118877Y1512323D01*
X1118877Y1489209D01*
X1114051Y1475239D01*
X1109479Y1466095D01*
X1100335Y1456951D01*
X1086365Y1452125D01*
X1054107Y1452125D01*
X1209301Y1516895D02*
G01*
X1204729Y1502925D01*
X1195331Y1493781D01*
X1181615Y1489209D01*
X1177043Y1489209D01*
X1163073Y1493781D01*
X1153929Y1502925D01*
X1149357Y1516895D01*
X1149357Y1521467D01*
X1153929Y1535437D01*
X1163073Y1544581D01*
X1177043Y1549153D01*
X1181615Y1549153D01*
X1195331Y1544581D01*
X1204729Y1535437D01*
X1209301Y1516895D01*
X1209301Y1493781D01*
X1204729Y1470667D01*
X1195331Y1456951D01*
X1181615Y1452125D01*
X1172217Y1452125D01*
X1158501Y1456951D01*
X1153929Y1466095D01*
X1016007Y1295153D02*
G01*
X1016007Y1198125D01*
X1016007Y1295153D02*
G01*
X1048265Y1295153D01*
X1062235Y1290581D01*
X1071379Y1281437D01*
X1075951Y1272039D01*
X1080777Y1258323D01*
X1080777Y1235209D01*
X1075951Y1221239D01*
X1071379Y1212095D01*
X1062235Y1202951D01*
X1048265Y1198125D01*
X1016007Y1198125D01*
X1111257Y1276611D02*
G01*
X1120401Y1281437D01*
X1134117Y1295153D01*
X1134117Y1198125D01*
X1192537Y1295153D02*
G01*
X1178567Y1290581D01*
X1169423Y1276611D01*
X1164597Y1253751D01*
X1164597Y1239781D01*
X1169423Y1216667D01*
X1178567Y1202951D01*
X1192537Y1198125D01*
X1201681Y1198125D01*
X1215397Y1202951D01*
X1224795Y1216667D01*
X1229367Y1239781D01*
X1229367Y1253751D01*
X1224795Y1276611D01*
X1215397Y1290581D01*
X1201681Y1295153D01*
X1192537Y1295153D01*
X3084824Y3319271D02*
G01*
X3047994Y3222244D01*
X3084824Y3319271D02*
G01*
X3121908Y3222244D01*
X3061964Y3254755D02*
G01*
X3107938Y3254755D01*
X3216904Y3319271D02*
G01*
X3170930Y3222244D01*
X3152388Y3319271D02*
G01*
X3216904Y3319271D01*
X3111507Y6346959D02*
G01*
X3092965Y6337815D01*
X3065279Y6310129D01*
X3065279Y6503931D01*
X2995175Y6356357D02*
G01*
X2995175Y6346959D01*
X2985777Y6328417D01*
X2976633Y6319273D01*
X2958091Y6310129D01*
X2921261Y6310129D01*
X2902719Y6319273D01*
X2893575Y6328417D01*
X2884177Y6346959D01*
X2884177Y6365501D01*
X2893575Y6384043D01*
X2912117Y6411729D01*
X3004319Y6503931D01*
X2875033Y6503931D01*
X2814073Y6374645D02*
G01*
X2758701Y6503931D01*
X2703329Y6374645D02*
G01*
X2758701Y6503931D01*
X2361445Y6356357D02*
G01*
X2370843Y6337815D01*
X2389131Y6319273D01*
X2407673Y6310129D01*
X2444757Y6310129D01*
X2463045Y6319273D01*
X2481587Y6337815D01*
X2490731Y6356357D01*
X2500129Y6384043D01*
X2500129Y6430017D01*
X2490731Y6457957D01*
X2481587Y6476245D01*
X2463045Y6494787D01*
X2444757Y6503931D01*
X2407673Y6503931D01*
X2389131Y6494787D01*
X2370843Y6476245D01*
X2361445Y6457957D01*
X2361445Y6430017D01*
X2407673Y6430017D02*
G01*
X2361445Y6430017D01*
X2222507Y6305303D02*
G01*
X2222507Y6499105D01*
X2222507Y6305303D02*
G01*
X2139449Y6305303D01*
X2111763Y6314447D01*
X2102365Y6323591D01*
X2093221Y6342133D01*
X2093221Y6360675D01*
X2102365Y6379217D01*
X2111763Y6388361D01*
X2139449Y6397505D01*
X2222507Y6397505D02*
G01*
X2139449Y6397505D01*
X2111763Y6406903D01*
X2102365Y6416047D01*
X2093221Y6434589D01*
X2093221Y6462275D01*
X2102365Y6480817D01*
X2111763Y6489961D01*
X2139449Y6499105D01*
X2222507Y6499105D01*
X2032261Y6305303D02*
G01*
X2032261Y6499105D01*
X1829061Y6305303D02*
G01*
X1829061Y6499105D01*
X1829061Y6305303D02*
G01*
X1746003Y6305303D01*
X1718317Y6314447D01*
X1708919Y6323591D01*
X1699775Y6342133D01*
X1699775Y6360675D01*
X1708919Y6379217D01*
X1718317Y6388361D01*
X1746003Y6397505D01*
X1829061Y6397505D02*
G01*
X1746003Y6397505D01*
X1718317Y6406903D01*
X1708919Y6416047D01*
X1699775Y6434589D01*
X1699775Y6462275D01*
X1708919Y6480817D01*
X1718317Y6489961D01*
X1746003Y6499105D01*
X1829061Y6499105D01*
X1583443Y6305303D02*
G01*
X1601731Y6314447D01*
X1620273Y6332989D01*
X1629417Y6351531D01*
X1638815Y6379217D01*
X1638815Y6425191D01*
X1629417Y6453131D01*
X1620273Y6471419D01*
X1601731Y6489961D01*
X1583443Y6499105D01*
X1546359Y6499105D01*
X1527817Y6489961D01*
X1509529Y6471419D01*
X1500131Y6453131D01*
X1490987Y6425191D01*
X1490987Y6379217D01*
X1500131Y6351531D01*
X1509529Y6332989D01*
X1527817Y6314447D01*
X1546359Y6305303D01*
X1583443Y6305303D01*
X1281437Y6318003D02*
G01*
X1281437Y6511805D01*
X1346207Y6318003D02*
G01*
X1216921Y6318003D01*
X958349Y6318003D02*
G01*
X976637Y6327147D01*
X995179Y6345689D01*
X1004577Y6364231D01*
X1013721Y6391917D01*
X1013721Y6437891D01*
X1004577Y6465831D01*
X995179Y6484119D01*
X976637Y6502661D01*
X958349Y6511805D01*
X921265Y6511805D01*
X902977Y6502661D01*
X884435Y6484119D01*
X875037Y6465831D01*
X865893Y6437891D01*
X865893Y6391917D01*
X875037Y6364231D01*
X884435Y6345689D01*
X902977Y6327147D01*
X921265Y6318003D01*
X958349Y6318003D01*
X524263Y6364231D02*
G01*
X533407Y6345689D01*
X551949Y6327147D01*
X570237Y6318003D01*
X607321Y6318003D01*
X625863Y6327147D01*
X644151Y6345689D01*
X653549Y6364231D01*
X662693Y6391917D01*
X662693Y6437891D01*
X653549Y6465831D01*
X644151Y6484119D01*
X625863Y6502661D01*
X607321Y6511805D01*
X570237Y6511805D01*
X551949Y6502661D01*
X533407Y6484119D01*
X524263Y6465831D01*
D11*
X1739900Y3595115D02*
G01*
X1739900Y3486150D01*
X1739900Y3595115D02*
G01*
X1786636Y3595115D01*
X1802129Y3590036D01*
X1807463Y3584702D01*
X1812544Y3574287D01*
X1812544Y3563873D01*
X1807463Y3553460D01*
X1802129Y3548379D01*
X1786636Y3543300D01*
X1739900Y3543300D01*
X1776221Y3543300D02*
G01*
X1812544Y3486150D01*
X1846834Y3574287D02*
G01*
X1857247Y3579621D01*
X1872995Y3595115D01*
X1872995Y3486150D01*
X1907286Y3548379D02*
G01*
X2000758Y3548379D01*
X1907286Y3517137D02*
G01*
X2000758Y3517137D01*
X2035047Y3574287D02*
G01*
X2045461Y3579621D01*
X2060956Y3595115D01*
X2060956Y3486150D01*
X2126488Y3595115D02*
G01*
X2110740Y3590036D01*
X2100579Y3574287D01*
X2095245Y3548379D01*
X2095245Y3532886D01*
X2100579Y3506723D01*
X2110740Y3491229D01*
X2126488Y3486150D01*
X2136902Y3486150D01*
X2152395Y3491229D01*
X2162809Y3506723D01*
X2167890Y3532886D01*
X2167890Y3548379D01*
X2162809Y3574287D01*
X2152395Y3590036D01*
X2136902Y3595115D01*
X2126488Y3595115D01*
X2202179Y3595115D02*
G01*
X2202179Y3486150D01*
X2254250Y3558794D02*
G01*
X2202179Y3506723D01*
X2223008Y3527552D02*
G01*
X2259329Y3486150D01*
X1739900Y3379215D02*
G01*
X1739900Y3270250D01*
X1739900Y3379215D02*
G01*
X1786636Y3379215D01*
X1802129Y3374136D01*
X1807463Y3368802D01*
X1812544Y3358387D01*
X1812544Y3347973D01*
X1807463Y3337560D01*
X1802129Y3332479D01*
X1786636Y3327400D01*
X1739900Y3327400D01*
X1776221Y3327400D02*
G01*
X1812544Y3270250D01*
X1852168Y3353307D02*
G01*
X1852168Y3358387D01*
X1857247Y3368802D01*
X1862581Y3374136D01*
X1872995Y3379215D01*
X1893570Y3379215D01*
X1903984Y3374136D01*
X1909318Y3368802D01*
X1914397Y3358387D01*
X1914397Y3347973D01*
X1909318Y3337560D01*
X1898904Y3322065D01*
X1846834Y3270250D01*
X1919731Y3270250D01*
X1954022Y3332479D02*
G01*
X2047493Y3332479D01*
X1954022Y3301237D02*
G01*
X2047493Y3301237D01*
X2081784Y3358387D02*
G01*
X2092197Y3363721D01*
X2107691Y3379215D01*
X2107691Y3270250D01*
X2173224Y3379215D02*
G01*
X2157729Y3374136D01*
X2147315Y3358387D01*
X2141981Y3332479D01*
X2141981Y3316986D01*
X2147315Y3290823D01*
X2157729Y3275329D01*
X2173224Y3270250D01*
X2183638Y3270250D01*
X2199131Y3275329D01*
X2209545Y3290823D01*
X2214879Y3316986D01*
X2214879Y3332479D01*
X2209545Y3358387D01*
X2199131Y3374136D01*
X2183638Y3379215D01*
X2173224Y3379215D01*
X2249170Y3379215D02*
G01*
X2249170Y3270250D01*
X2300986Y3342894D02*
G01*
X2249170Y3290823D01*
X2269743Y3311652D02*
G01*
X2306320Y3270250D01*
X1739900Y3163315D02*
G01*
X1739900Y3054350D01*
X1739900Y3163315D02*
G01*
X1786636Y3163315D01*
X1802129Y3158236D01*
X1807463Y3152902D01*
X1812544Y3142487D01*
X1812544Y3132073D01*
X1807463Y3121660D01*
X1802129Y3116579D01*
X1786636Y3111500D01*
X1739900Y3111500D01*
X1776221Y3111500D02*
G01*
X1812544Y3054350D01*
X1857247Y3163315D02*
G01*
X1914397Y3163315D01*
X1883410Y3121660D01*
X1898904Y3121660D01*
X1909318Y3116579D01*
X1914397Y3111500D01*
X1919731Y3095752D01*
X1919731Y3085337D01*
X1914397Y3069844D01*
X1903984Y3059429D01*
X1888489Y3054350D01*
X1872995Y3054350D01*
X1857247Y3059429D01*
X1852168Y3064510D01*
X1846834Y3074923D01*
X1954022Y3116579D02*
G01*
X2047493Y3116579D01*
X1954022Y3085337D02*
G01*
X2047493Y3085337D01*
X2081784Y3142487D02*
G01*
X2092197Y3147821D01*
X2107691Y3163315D01*
X2107691Y3054350D01*
X2173224Y3163315D02*
G01*
X2157729Y3158236D01*
X2147315Y3142487D01*
X2141981Y3116579D01*
X2141981Y3101086D01*
X2147315Y3074923D01*
X2157729Y3059429D01*
X2173224Y3054350D01*
X2183638Y3054350D01*
X2199131Y3059429D01*
X2209545Y3074923D01*
X2214879Y3101086D01*
X2214879Y3116579D01*
X2209545Y3142487D01*
X2199131Y3158236D01*
X2183638Y3163315D01*
X2173224Y3163315D01*
X2249170Y3163315D02*
G01*
X2249170Y3054350D01*
X2300986Y3126994D02*
G01*
X2249170Y3074923D01*
X2269743Y3095752D02*
G01*
X2306320Y3054350D01*
X1739900Y2947415D02*
G01*
X1739900Y2838450D01*
X1739900Y2947415D02*
G01*
X1786636Y2947415D01*
X1802129Y2942336D01*
X1807463Y2937002D01*
X1812544Y2926587D01*
X1812544Y2916173D01*
X1807463Y2905760D01*
X1802129Y2900679D01*
X1786636Y2895600D01*
X1739900Y2895600D01*
X1776221Y2895600D02*
G01*
X1812544Y2838450D01*
X1898904Y2947415D02*
G01*
X1846834Y2874771D01*
X1924812Y2874771D01*
X1898904Y2947415D02*
G01*
X1898904Y2838450D01*
X1959102Y2900679D02*
G01*
X2052574Y2900679D01*
X1959102Y2869437D02*
G01*
X2052574Y2869437D01*
X2086863Y2926587D02*
G01*
X2097277Y2931921D01*
X2113025Y2947415D01*
X2113025Y2838450D01*
X2147315Y2947415D02*
G01*
X2147315Y2838450D01*
X2199131Y2911094D02*
G01*
X2147315Y2859023D01*
X2167890Y2879852D02*
G01*
X2204465Y2838450D01*
X1739900Y2731515D02*
G01*
X1739900Y2622550D01*
X1739900Y2731515D02*
G01*
X1786636Y2731515D01*
X1802129Y2726436D01*
X1807463Y2721102D01*
X1812544Y2710687D01*
X1812544Y2700273D01*
X1807463Y2689860D01*
X1802129Y2684779D01*
X1786636Y2679700D01*
X1739900Y2679700D01*
X1776221Y2679700D02*
G01*
X1812544Y2622550D01*
X1909318Y2731515D02*
G01*
X1857247Y2731515D01*
X1852168Y2684779D01*
X1857247Y2689860D01*
X1872995Y2695194D01*
X1888489Y2695194D01*
X1903984Y2689860D01*
X1914397Y2679700D01*
X1919731Y2663952D01*
X1919731Y2653537D01*
X1914397Y2638044D01*
X1903984Y2627629D01*
X1888489Y2622550D01*
X1872995Y2622550D01*
X1857247Y2627629D01*
X1852168Y2632710D01*
X1846834Y2643123D01*
X1954022Y2684779D02*
G01*
X2047493Y2684779D01*
X1954022Y2653537D02*
G01*
X2047493Y2653537D01*
X2081784Y2710687D02*
G01*
X2092197Y2716021D01*
X2107691Y2731515D01*
X2107691Y2622550D01*
X2141981Y2731515D02*
G01*
X2141981Y2622550D01*
X2194052Y2695194D02*
G01*
X2141981Y2643123D01*
X2162809Y2663952D02*
G01*
X2199131Y2622550D01*
X1739900Y2515615D02*
G01*
X1739900Y2406650D01*
X1739900Y2515615D02*
G01*
X1786636Y2515615D01*
X1802129Y2510536D01*
X1807463Y2505202D01*
X1812544Y2494787D01*
X1812544Y2484373D01*
X1807463Y2473960D01*
X1802129Y2468879D01*
X1786636Y2463800D01*
X1739900Y2463800D01*
X1776221Y2463800D02*
G01*
X1812544Y2406650D01*
X1909318Y2500121D02*
G01*
X1903984Y2510536D01*
X1888489Y2515615D01*
X1878076Y2515615D01*
X1862581Y2510536D01*
X1852168Y2494787D01*
X1846834Y2468879D01*
X1846834Y2442971D01*
X1852168Y2422144D01*
X1862581Y2411729D01*
X1878076Y2406650D01*
X1883410Y2406650D01*
X1898904Y2411729D01*
X1909318Y2422144D01*
X1914397Y2437637D01*
X1914397Y2442971D01*
X1909318Y2458465D01*
X1898904Y2468879D01*
X1883410Y2473960D01*
X1878076Y2473960D01*
X1862581Y2468879D01*
X1852168Y2458465D01*
X1846834Y2442971D01*
X1948688Y2468879D02*
G01*
X2042159Y2468879D01*
X1948688Y2437637D02*
G01*
X2042159Y2437637D01*
X2076450Y2494787D02*
G01*
X2086863Y2500121D01*
X2102611Y2515615D01*
X2102611Y2406650D01*
X2136902Y2515615D02*
G01*
X2136902Y2406650D01*
X2188718Y2479294D02*
G01*
X2136902Y2427223D01*
X2157729Y2448052D02*
G01*
X2194052Y2406650D01*
X1739900Y2299715D02*
G01*
X1739900Y2190750D01*
X1739900Y2299715D02*
G01*
X1786636Y2299715D01*
X1802129Y2294636D01*
X1807463Y2289302D01*
X1812544Y2278887D01*
X1812544Y2268473D01*
X1807463Y2258060D01*
X1802129Y2252979D01*
X1786636Y2247900D01*
X1739900Y2247900D01*
X1776221Y2247900D02*
G01*
X1812544Y2190750D01*
X1919731Y2299715D02*
G01*
X1867662Y2190750D01*
X1846834Y2299715D02*
G01*
X1919731Y2299715D01*
X1954022Y2252979D02*
G01*
X2047493Y2252979D01*
X1954022Y2221737D02*
G01*
X2047493Y2221737D01*
X2081784Y2278887D02*
G01*
X2092197Y2284221D01*
X2107691Y2299715D01*
X2107691Y2190750D01*
X2141981Y2299715D02*
G01*
X2141981Y2190750D01*
X2194052Y2263394D02*
G01*
X2141981Y2211323D01*
X2162809Y2232152D02*
G01*
X2199131Y2190750D01*
X1739900Y2083815D02*
G01*
X1739900Y1974850D01*
X1739900Y2083815D02*
G01*
X1786636Y2083815D01*
X1802129Y2078736D01*
X1807463Y2073402D01*
X1812544Y2062987D01*
X1812544Y2052573D01*
X1807463Y2042160D01*
X1802129Y2037079D01*
X1786636Y2032000D01*
X1739900Y2032000D01*
X1776221Y2032000D02*
G01*
X1812544Y1974850D01*
X1872995Y2083815D02*
G01*
X1857247Y2078736D01*
X1852168Y2068321D01*
X1852168Y2057907D01*
X1857247Y2047494D01*
X1867662Y2042160D01*
X1888489Y2037079D01*
X1903984Y2032000D01*
X1914397Y2021586D01*
X1919731Y2011171D01*
X1919731Y1995423D01*
X1914397Y1985010D01*
X1909318Y1979929D01*
X1893570Y1974850D01*
X1872995Y1974850D01*
X1857247Y1979929D01*
X1852168Y1985010D01*
X1846834Y1995423D01*
X1846834Y2011171D01*
X1852168Y2021586D01*
X1862581Y2032000D01*
X1878076Y2037079D01*
X1898904Y2042160D01*
X1909318Y2047494D01*
X1914397Y2057907D01*
X1914397Y2068321D01*
X1909318Y2078736D01*
X1893570Y2083815D01*
X1872995Y2083815D01*
X1954022Y2037079D02*
G01*
X2047493Y2037079D01*
X1954022Y2005837D02*
G01*
X2047493Y2005837D01*
X2081784Y2062987D02*
G01*
X2092197Y2068321D01*
X2107691Y2083815D01*
X2107691Y1974850D01*
X2141981Y2083815D02*
G01*
X2141981Y1974850D01*
X2194052Y2047494D02*
G01*
X2141981Y1995423D01*
X2162809Y2016252D02*
G01*
X2199131Y1974850D01*
X1739900Y1867915D02*
G01*
X1739900Y1758950D01*
X1739900Y1867915D02*
G01*
X1786636Y1867915D01*
X1802129Y1862836D01*
X1807463Y1857502D01*
X1812544Y1847087D01*
X1812544Y1836673D01*
X1807463Y1826260D01*
X1802129Y1821179D01*
X1786636Y1816100D01*
X1739900Y1816100D01*
X1776221Y1816100D02*
G01*
X1812544Y1758950D01*
X1914397Y1831594D02*
G01*
X1909318Y1816100D01*
X1898904Y1805686D01*
X1883410Y1800352D01*
X1878076Y1800352D01*
X1862581Y1805686D01*
X1852168Y1816100D01*
X1846834Y1831594D01*
X1846834Y1836673D01*
X1852168Y1852421D01*
X1862581Y1862836D01*
X1878076Y1867915D01*
X1883410Y1867915D01*
X1898904Y1862836D01*
X1909318Y1852421D01*
X1914397Y1831594D01*
X1914397Y1805686D01*
X1909318Y1779523D01*
X1898904Y1764029D01*
X1883410Y1758950D01*
X1872995Y1758950D01*
X1857247Y1764029D01*
X1852168Y1774444D01*
X1948688Y1821179D02*
G01*
X2042159Y1821179D01*
X1948688Y1789937D02*
G01*
X2042159Y1789937D01*
X2086863Y1867915D02*
G01*
X2144013Y1867915D01*
X2113025Y1826260D01*
X2128520Y1826260D01*
X2138934Y1821179D01*
X2144013Y1816100D01*
X2149347Y1800352D01*
X2149347Y1789937D01*
X2144013Y1774444D01*
X2133600Y1764029D01*
X2118106Y1758950D01*
X2102611Y1758950D01*
X2086863Y1764029D01*
X2081784Y1769110D01*
X2076450Y1779523D01*
X2194052Y1867915D02*
G01*
X2251202Y1867915D01*
X2219959Y1826260D01*
X2235454Y1826260D01*
X2245868Y1821179D01*
X2251202Y1816100D01*
X2256281Y1800352D01*
X2256281Y1789937D01*
X2251202Y1774444D01*
X2240788Y1764029D01*
X2225040Y1758950D01*
X2209545Y1758950D01*
X2194052Y1764029D01*
X2188718Y1769110D01*
X2183638Y1779523D01*
X2321813Y1867915D02*
G01*
X2306320Y1862836D01*
X2295906Y1847087D01*
X2290572Y1821179D01*
X2290572Y1805686D01*
X2295906Y1779523D01*
X2306320Y1764029D01*
X2321813Y1758950D01*
X2332227Y1758950D01*
X2347722Y1764029D01*
X2358136Y1779523D01*
X2363470Y1805686D01*
X2363470Y1821179D01*
X2358136Y1847087D01*
X2347722Y1862836D01*
X2332227Y1867915D01*
X2321813Y1867915D01*
X1739900Y1652015D02*
G01*
X1739900Y1543050D01*
X1739900Y1652015D02*
G01*
X1786636Y1652015D01*
X1802129Y1646936D01*
X1807463Y1641602D01*
X1812544Y1631187D01*
X1812544Y1620773D01*
X1807463Y1610360D01*
X1802129Y1605279D01*
X1786636Y1600200D01*
X1739900Y1600200D01*
X1776221Y1600200D02*
G01*
X1812544Y1543050D01*
X1846834Y1631187D02*
G01*
X1857247Y1636521D01*
X1872995Y1652015D01*
X1872995Y1543050D01*
X1938274Y1652015D02*
G01*
X1922779Y1646936D01*
X1912365Y1631187D01*
X1907286Y1605279D01*
X1907286Y1589786D01*
X1912365Y1563623D01*
X1922779Y1548129D01*
X1938274Y1543050D01*
X1948688Y1543050D01*
X1964436Y1548129D01*
X1974850Y1563623D01*
X1979929Y1589786D01*
X1979929Y1605279D01*
X1974850Y1631187D01*
X1964436Y1646936D01*
X1948688Y1652015D01*
X1938274Y1652015D01*
X2014220Y1605279D02*
G01*
X2107691Y1605279D01*
X2014220Y1574037D02*
G01*
X2107691Y1574037D01*
X2152395Y1652015D02*
G01*
X2209545Y1652015D01*
X2178304Y1610360D01*
X2194052Y1610360D01*
X2204465Y1605279D01*
X2209545Y1600200D01*
X2214879Y1584452D01*
X2214879Y1574037D01*
X2209545Y1558544D01*
X2199131Y1548129D01*
X2183638Y1543050D01*
X2167890Y1543050D01*
X2152395Y1548129D01*
X2147315Y1553210D01*
X2141981Y1563623D01*
X2259329Y1652015D02*
G01*
X2316479Y1652015D01*
X2285491Y1610360D01*
X2300986Y1610360D01*
X2311400Y1605279D01*
X2316479Y1600200D01*
X2321813Y1584452D01*
X2321813Y1574037D01*
X2316479Y1558544D01*
X2306320Y1548129D01*
X2290572Y1543050D01*
X2275077Y1543050D01*
X2259329Y1548129D01*
X2254250Y1553210D01*
X2249170Y1563623D01*
X2387345Y1652015D02*
G01*
X2371597Y1646936D01*
X2361184Y1631187D01*
X2356104Y1605279D01*
X2356104Y1589786D01*
X2361184Y1563623D01*
X2371597Y1548129D01*
X2387345Y1543050D01*
X2397759Y1543050D01*
X2413254Y1548129D01*
X2423668Y1563623D01*
X2428747Y1589786D01*
X2428747Y1605279D01*
X2423668Y1631187D01*
X2413254Y1646936D01*
X2397759Y1652015D01*
X2387345Y1652015D01*
X1744979Y1410207D02*
G01*
X1744979Y1415287D01*
X1750313Y1425702D01*
X1755394Y1431036D01*
X1765807Y1436115D01*
X1786636Y1436115D01*
X1797050Y1431036D01*
X1802129Y1425702D01*
X1807463Y1415287D01*
X1807463Y1404873D01*
X1802129Y1394460D01*
X1791970Y1378965D01*
X1739900Y1327150D01*
X1812544Y1327150D01*
X1846834Y1399794D02*
G01*
X1846834Y1327150D01*
X1846834Y1378965D02*
G01*
X1862581Y1394460D01*
X1872995Y1399794D01*
X1888489Y1399794D01*
X1898904Y1394460D01*
X1903984Y1378965D01*
X1903984Y1327150D01*
X1948688Y1436115D02*
G01*
X2005838Y1436115D01*
X1974850Y1394460D01*
X1990343Y1394460D01*
X2000758Y1389379D01*
X2005838Y1384300D01*
X2011172Y1368552D01*
X2011172Y1358137D01*
X2005838Y1342644D01*
X1995424Y1332229D01*
X1979929Y1327150D01*
X1964436Y1327150D01*
X1948688Y1332229D01*
X1943608Y1337310D01*
X1938274Y1347723D01*
X2113025Y1399794D02*
G01*
X2107691Y1384300D01*
X2097277Y1373886D01*
X2081784Y1368552D01*
X2076450Y1368552D01*
X2060956Y1373886D01*
X2050541Y1384300D01*
X2045461Y1399794D01*
X2045461Y1404873D01*
X2050541Y1420621D01*
X2060956Y1431036D01*
X2076450Y1436115D01*
X2081784Y1436115D01*
X2097277Y1431036D01*
X2107691Y1420621D01*
X2113025Y1399794D01*
X2113025Y1373886D01*
X2107691Y1347723D01*
X2097277Y1332229D01*
X2081784Y1327150D01*
X2071370Y1327150D01*
X2055875Y1332229D01*
X2050541Y1342644D01*
X2178304Y1436115D02*
G01*
X2162809Y1431036D01*
X2152395Y1415287D01*
X2147315Y1389379D01*
X2147315Y1373886D01*
X2152395Y1347723D01*
X2162809Y1332229D01*
X2178304Y1327150D01*
X2188718Y1327150D01*
X2204465Y1332229D01*
X2214879Y1347723D01*
X2219959Y1373886D01*
X2219959Y1389379D01*
X2214879Y1415287D01*
X2204465Y1431036D01*
X2188718Y1436115D01*
X2178304Y1436115D01*
X2306320Y1436115D02*
G01*
X2254250Y1363471D01*
X2332227Y1363471D01*
X2306320Y1436115D02*
G01*
X2306320Y1327150D01*
X1739900Y1220215D02*
G01*
X1739900Y1111250D01*
X1739900Y1220215D02*
G01*
X1786636Y1220215D01*
X1802129Y1215136D01*
X1807463Y1209802D01*
X1812544Y1199387D01*
X1812544Y1183894D01*
X1807463Y1173479D01*
X1802129Y1168400D01*
X1786636Y1163065D01*
X1739900Y1163065D01*
X1924812Y1194307D02*
G01*
X1919731Y1204721D01*
X1909318Y1215136D01*
X1898904Y1220215D01*
X1878076Y1220215D01*
X1867662Y1215136D01*
X1857247Y1204721D01*
X1852168Y1194307D01*
X1846834Y1178560D01*
X1846834Y1152652D01*
X1852168Y1137157D01*
X1857247Y1126744D01*
X1867662Y1116329D01*
X1878076Y1111250D01*
X1898904Y1111250D01*
X1909318Y1116329D01*
X1919731Y1126744D01*
X1924812Y1137157D01*
X1985009Y1220215D02*
G01*
X1969515Y1215136D01*
X1964436Y1204721D01*
X1964436Y1194307D01*
X1969515Y1183894D01*
X1979929Y1178560D01*
X2000758Y1173479D01*
X2016252Y1168400D01*
X2026665Y1157986D01*
X2032000Y1147571D01*
X2032000Y1131823D01*
X2026665Y1121410D01*
X2021586Y1116329D01*
X2005838Y1111250D01*
X1985009Y1111250D01*
X1969515Y1116329D01*
X1964436Y1121410D01*
X1959102Y1131823D01*
X1959102Y1147571D01*
X1964436Y1157986D01*
X1974850Y1168400D01*
X1990343Y1173479D01*
X2011172Y1178560D01*
X2021586Y1183894D01*
X2026665Y1194307D01*
X2026665Y1204721D01*
X2021586Y1215136D01*
X2005838Y1220215D01*
X1985009Y1220215D01*
X2066290Y1199387D02*
G01*
X2076450Y1204721D01*
X2092197Y1220215D01*
X2092197Y1111250D01*
X2199131Y1220215D02*
G01*
X2147315Y1111250D01*
X2126488Y1220215D02*
G01*
X2199131Y1220215D01*
X3162808Y3868420D02*
G01*
X3167888Y3868420D01*
X3178302Y3863086D01*
X3183636Y3858005D01*
X3188715Y3847592D01*
X3188715Y3826763D01*
X3183636Y3816350D01*
X3178302Y3811270D01*
X3167888Y3805936D01*
X3157474Y3805936D01*
X3147059Y3811270D01*
X3131565Y3821429D01*
X3079750Y3873500D01*
X3079750Y3800855D01*
X3188715Y3735323D02*
G01*
X3183636Y3750818D01*
X3167888Y3761231D01*
X3141979Y3766565D01*
X3126486Y3766565D01*
X3100324Y3761231D01*
X3084829Y3750818D01*
X3079750Y3735323D01*
X3079750Y3724910D01*
X3084829Y3709415D01*
X3100324Y3699002D01*
X3126486Y3693668D01*
X3141979Y3693668D01*
X3167888Y3699002D01*
X3183636Y3709415D01*
X3188715Y3724910D01*
X3188715Y3735323D01*
X3162808Y3654297D02*
G01*
X3167888Y3654297D01*
X3178302Y3648963D01*
X3183636Y3643884D01*
X3188715Y3633470D01*
X3188715Y3612642D01*
X3183636Y3602228D01*
X3178302Y3597147D01*
X3167888Y3591813D01*
X3157474Y3591813D01*
X3147059Y3597147D01*
X3131565Y3607562D01*
X3079750Y3659378D01*
X3079750Y3586734D01*
X3188715Y3542029D02*
G01*
X3188715Y3484879D01*
X3147059Y3516121D01*
X3147059Y3500373D01*
X3141979Y3489960D01*
X3136900Y3484879D01*
X3121152Y3479800D01*
X3110738Y3479800D01*
X3095243Y3484879D01*
X3084829Y3495294D01*
X3079750Y3510787D01*
X3079750Y3526536D01*
X3084829Y3542029D01*
X3089909Y3547110D01*
X3100324Y3552444D01*
X3188715Y3125470D02*
G01*
X3079750Y3125470D01*
X3188715Y3125470D02*
G01*
X3188715Y3078479D01*
X3183636Y3062986D01*
X3178302Y3057905D01*
X3167888Y3052571D01*
X3157474Y3052571D01*
X3147059Y3057905D01*
X3141979Y3062986D01*
X3136900Y3078479D01*
X3136900Y3125470D02*
G01*
X3136900Y3078479D01*
X3131565Y3062986D01*
X3126486Y3057905D01*
X3116072Y3052571D01*
X3100324Y3052571D01*
X3089909Y3057905D01*
X3084829Y3062986D01*
X3079750Y3078479D01*
X3079750Y3125470D01*
X3188715Y3018281D02*
G01*
X3079750Y3018281D01*
X3188715Y3018281D02*
G01*
X3188715Y2950718D01*
X3136900Y3018281D02*
G01*
X3136900Y2976879D01*
X3079750Y3018281D02*
G01*
X3079750Y2950718D01*
X3188715Y2875026D02*
G01*
X3079750Y2916428D01*
X3188715Y2875026D02*
G01*
X3079750Y2833370D01*
X3116072Y2900934D02*
G01*
X3116072Y2848863D01*
X3188715Y2799079D02*
G01*
X3079750Y2799079D01*
X3188715Y2799079D02*
G01*
X3079750Y2726436D01*
X3188715Y2726436D02*
G01*
X3079750Y2726436D01*
X3188715Y2612136D02*
G01*
X3079750Y2612136D01*
X3188715Y2612136D02*
G01*
X3188715Y2565400D01*
X3183636Y2549652D01*
X3178302Y2544571D01*
X3167888Y2539237D01*
X3157474Y2539237D01*
X3147059Y2544571D01*
X3141979Y2549652D01*
X3136900Y2565400D01*
X3136900Y2612136D02*
G01*
X3136900Y2565400D01*
X3131565Y2549652D01*
X3126486Y2544571D01*
X3116072Y2539237D01*
X3100324Y2539237D01*
X3089909Y2544571D01*
X3084829Y2549652D01*
X3079750Y2565400D01*
X3079750Y2612136D01*
X3188715Y2463545D02*
G01*
X3079750Y2504947D01*
X3188715Y2463545D02*
G01*
X3079750Y2421889D01*
X3116072Y2489454D02*
G01*
X3116072Y2437384D01*
X3188715Y2387600D02*
G01*
X3079750Y2387600D01*
X3188715Y2387600D02*
G01*
X3079750Y2314955D01*
X3188715Y2314955D02*
G01*
X3079750Y2314955D01*
X3162808Y2202687D02*
G01*
X3173222Y2207768D01*
X3183636Y2218181D01*
X3188715Y2228595D01*
X3188715Y2249423D01*
X3183636Y2259837D01*
X3173222Y2270252D01*
X3162808Y2275331D01*
X3147059Y2280665D01*
X3121152Y2280665D01*
X3105658Y2275331D01*
X3095243Y2270252D01*
X3084829Y2259837D01*
X3079750Y2249423D01*
X3079750Y2228595D01*
X3084829Y2218181D01*
X3095243Y2207768D01*
X3105658Y2202687D01*
X3121152Y2202687D01*
X3121152Y2228595D02*
G01*
X3121152Y2202687D01*
X3188715Y2168397D02*
G01*
X3079750Y2168397D01*
X3188715Y2168397D02*
G01*
X3188715Y2100834D01*
X3136900Y2168397D02*
G01*
X3136900Y2126742D01*
X3079750Y2168397D02*
G01*
X3079750Y2100834D01*
X3188715Y2066544D02*
G01*
X3079750Y2066544D01*
X3188715Y2066544D02*
G01*
X3188715Y2019807D01*
X3183636Y2004060D01*
X3178302Y1998979D01*
X3167888Y1993900D01*
X3157474Y1993900D01*
X3147059Y1998979D01*
X3141979Y2004060D01*
X3136900Y2019807D01*
X3136900Y2066544D01*
X3136900Y2030221D02*
G01*
X3079750Y1993900D01*
X3188715Y1879600D02*
G01*
X3079750Y1879600D01*
X3136900Y1879600D02*
G01*
X3147059Y1869186D01*
X3152393Y1858771D01*
X3152393Y1843023D01*
X3147059Y1832610D01*
X3136900Y1822450D01*
X3121152Y1817115D01*
X3110738Y1817115D01*
X3095243Y1822450D01*
X3084829Y1832610D01*
X3079750Y1843023D01*
X3079750Y1858771D01*
X3084829Y1869186D01*
X3095243Y1879600D01*
X3152393Y1777745D02*
G01*
X3079750Y1746504D01*
X3152393Y1715262D02*
G01*
X3079750Y1746504D01*
X3058922Y1756918D01*
X3048508Y1767331D01*
X3043174Y1777745D01*
X3043174Y1782826D01*
X3188715Y1564639D02*
G01*
X3079750Y1564639D01*
X3188715Y1600962D02*
G01*
X3188715Y1528318D01*
X3188715Y1494028D02*
G01*
X3079750Y1494028D01*
X3188715Y1421129D02*
G01*
X3079750Y1421129D01*
X3136900Y1494028D02*
G01*
X3136900Y1421129D01*
X3188715Y1386839D02*
G01*
X3079750Y1386839D01*
X3188715Y1386839D02*
G01*
X3188715Y1340104D01*
X3183636Y1324610D01*
X3178302Y1319529D01*
X3167888Y1314195D01*
X3157474Y1314195D01*
X3147059Y1319529D01*
X3141979Y1324610D01*
X3136900Y1340104D01*
X3136900Y1386839D01*
X3136900Y1350518D02*
G01*
X3079750Y1314195D01*
X3188715Y1279905D02*
G01*
X3079750Y1279905D01*
X3188715Y1279905D02*
G01*
X3188715Y1212342D01*
X3136900Y1279905D02*
G01*
X3136900Y1238250D01*
X3079750Y1279905D02*
G01*
X3079750Y1212342D01*
X3188715Y1178052D02*
G01*
X3079750Y1178052D01*
X3188715Y1178052D02*
G01*
X3188715Y1110487D01*
X3136900Y1178052D02*
G01*
X3136900Y1136650D01*
X3079750Y1178052D02*
G01*
X3079750Y1110487D01*
X3188715Y1076197D02*
G01*
X3079750Y1076197D01*
X3188715Y1076197D02*
G01*
X3188715Y1029462D01*
X3183636Y1013968D01*
X3178302Y1008634D01*
X3167888Y1003554D01*
X3152393Y1003554D01*
X3141979Y1008634D01*
X3136900Y1013968D01*
X3131565Y1029462D01*
X3131565Y1076197D01*
X3188715Y938021D02*
G01*
X3183636Y948436D01*
X3173222Y958850D01*
X3162808Y963929D01*
X3147059Y969263D01*
X3121152Y969263D01*
X3105658Y963929D01*
X3095243Y958850D01*
X3084829Y948436D01*
X3079750Y938021D01*
X3079750Y917194D01*
X3084829Y906779D01*
X3095243Y896620D01*
X3105658Y891286D01*
X3121152Y886205D01*
X3147059Y886205D01*
X3162808Y891286D01*
X3173222Y896620D01*
X3183636Y906779D01*
X3188715Y917194D01*
X3188715Y938021D01*
X3188715Y815339D02*
G01*
X3079750Y815339D01*
X3188715Y851915D02*
G01*
X3188715Y779018D01*
X977900Y1867915D02*
G01*
X977900Y1758950D01*
X977900Y1867915D02*
G01*
X1024636Y1867915D01*
X1040129Y1862836D01*
X1045463Y1857502D01*
X1050544Y1847087D01*
X1050544Y1836673D01*
X1045463Y1826260D01*
X1040129Y1821179D01*
X1024636Y1816100D01*
X977900Y1816100D01*
X1014221Y1816100D02*
G01*
X1050544Y1758950D01*
X1084834Y1847087D02*
G01*
X1095247Y1852421D01*
X1110995Y1867915D01*
X1110995Y1758950D01*
X1145286Y1847087D02*
G01*
X1155700Y1852421D01*
X1171194Y1867915D01*
X1171194Y1758950D01*
X952500Y585215D02*
G01*
X952500Y476250D01*
X952500Y585215D02*
G01*
X999236Y585215D01*
X1014729Y580136D01*
X1020063Y574802D01*
X1025144Y564387D01*
X1025144Y553973D01*
X1020063Y543560D01*
X1014729Y538479D01*
X999236Y533400D01*
X952500Y533400D01*
X988821Y533400D02*
G01*
X1025144Y476250D01*
X1059434Y564387D02*
G01*
X1069847Y569721D01*
X1085595Y585215D01*
X1085595Y476250D01*
X1124965Y559307D02*
G01*
X1124965Y564387D01*
X1130300Y574802D01*
X1135379Y580136D01*
X1145794Y585215D01*
X1166621Y585215D01*
X1177036Y580136D01*
X1182115Y574802D01*
X1187450Y564387D01*
X1187450Y553973D01*
X1182115Y543560D01*
X1171702Y528065D01*
X1119886Y476250D01*
X1192529Y476250D01*
X2377808Y4870310D02*
G01*
X2377808Y4792332D01*
X2382888Y4776838D01*
X2393302Y4766424D01*
X2409050Y4761344D01*
X2419464Y4761344D01*
X2434958Y4766424D01*
X2445372Y4776838D01*
X2450452Y4792332D01*
X2450452Y4870310D01*
X2484742Y4849482D02*
G01*
X2495156Y4854816D01*
X2510904Y4870310D01*
X2510904Y4761344D01*
X393816Y4242821D02*
G01*
X393816Y4164843D01*
X398896Y4149349D01*
X409310Y4138935D01*
X424804Y4133855D01*
X435218Y4133855D01*
X450966Y4138935D01*
X461126Y4149349D01*
X466460Y4164843D01*
X466460Y4242821D01*
X511164Y4242821D02*
G01*
X568314Y4242821D01*
X537072Y4201165D01*
X552566Y4201165D01*
X562980Y4196085D01*
X568314Y4191005D01*
X573394Y4175257D01*
X573394Y4164843D01*
X568314Y4149349D01*
X557900Y4138935D01*
X542406Y4133855D01*
X526658Y4133855D01*
X511164Y4138935D01*
X505830Y4144015D01*
X500750Y4154429D01*
X393816Y3455421D02*
G01*
X393816Y3377443D01*
X398896Y3361949D01*
X409310Y3351535D01*
X424804Y3346455D01*
X435218Y3346455D01*
X450966Y3351535D01*
X461126Y3361949D01*
X466460Y3377443D01*
X466460Y3455421D01*
X505830Y3429513D02*
G01*
X505830Y3434593D01*
X511164Y3445007D01*
X516244Y3450341D01*
X526658Y3455421D01*
X547486Y3455421D01*
X557900Y3450341D01*
X562980Y3445007D01*
X568314Y3434593D01*
X568314Y3424179D01*
X562980Y3413765D01*
X552566Y3398271D01*
X500750Y3346455D01*
X573394Y3346455D01*
X1247508Y4857610D02*
G01*
X1247508Y4779632D01*
X1252588Y4764138D01*
X1263002Y4753724D01*
X1278750Y4748644D01*
X1289164Y4748644D01*
X1304658Y4753724D01*
X1315072Y4764138D01*
X1320152Y4779632D01*
X1320152Y4857610D01*
X1406512Y4857610D02*
G01*
X1354442Y4784966D01*
X1432420Y4784966D01*
X1406512Y4857610D02*
G01*
X1406512Y4748644D01*
X1844408Y5454510D02*
G01*
X1844408Y5345544D01*
X1844408Y5454510D02*
G01*
X1891144Y5454510D01*
X1906638Y5449430D01*
X1911972Y5444096D01*
X1917052Y5433682D01*
X1917052Y5423268D01*
X1911972Y5412854D01*
X1906638Y5407774D01*
X1891144Y5402694D01*
X1844408Y5402694D01*
X1880730Y5402694D02*
G01*
X1917052Y5345544D01*
X1951342Y5433682D02*
G01*
X1961756Y5439016D01*
X1977504Y5454510D01*
X1977504Y5345544D01*
X1220228Y4470412D02*
G01*
X1111262Y4470412D01*
X1220228Y4470412D02*
G01*
X1220228Y4423676D01*
X1215148Y4408182D01*
X1209814Y4402848D01*
X1199400Y4397768D01*
X1188986Y4397768D01*
X1178572Y4402848D01*
X1173492Y4408182D01*
X1168412Y4423676D01*
X1168412Y4470412D01*
X1168412Y4434090D02*
G01*
X1111262Y4397768D01*
X1194320Y4358144D02*
G01*
X1199400Y4358144D01*
X1209814Y4353064D01*
X1215148Y4347730D01*
X1220228Y4337316D01*
X1220228Y4316742D01*
X1215148Y4306328D01*
X1209814Y4300994D01*
X1199400Y4295914D01*
X1188986Y4295914D01*
X1178572Y4300994D01*
X1163078Y4311408D01*
X1111262Y4363478D01*
X1111262Y4290580D01*
X764908Y5454510D02*
G01*
X764908Y5345544D01*
X764908Y5454510D02*
G01*
X811644Y5454510D01*
X827138Y5449430D01*
X832472Y5444096D01*
X837552Y5433682D01*
X837552Y5423268D01*
X832472Y5412854D01*
X827138Y5407774D01*
X811644Y5402694D01*
X764908Y5402694D01*
X801230Y5402694D02*
G01*
X837552Y5345544D01*
X934326Y5439016D02*
G01*
X928992Y5449430D01*
X913498Y5454510D01*
X903084Y5454510D01*
X887590Y5449430D01*
X877176Y5433682D01*
X871842Y5407774D01*
X871842Y5381866D01*
X877176Y5361038D01*
X887590Y5350624D01*
X903084Y5345544D01*
X908418Y5345544D01*
X923912Y5350624D01*
X934326Y5361038D01*
X939406Y5376532D01*
X939406Y5381866D01*
X934326Y5397360D01*
X923912Y5407774D01*
X908418Y5412854D01*
X903084Y5412854D01*
X887590Y5407774D01*
X877176Y5397360D01*
X871842Y5381866D01*
X2873108Y5454510D02*
G01*
X2873108Y5345544D01*
X2873108Y5454510D02*
G01*
X2919844Y5454510D01*
X2935338Y5449430D01*
X2940672Y5444096D01*
X2945752Y5433682D01*
X2945752Y5423268D01*
X2940672Y5412854D01*
X2935338Y5407774D01*
X2919844Y5402694D01*
X2873108Y5402694D01*
X2909430Y5402694D02*
G01*
X2945752Y5345544D01*
X3032112Y5454510D02*
G01*
X2980042Y5381866D01*
X3058020Y5381866D01*
X3032112Y5454510D02*
G01*
X3032112Y5345544D01*
X2114016Y5459704D02*
G01*
X2114016Y5350738D01*
X2114016Y5459704D02*
G01*
X2160752Y5459704D01*
X2176246Y5454624D01*
X2181580Y5449290D01*
X2186660Y5438876D01*
X2186660Y5428462D01*
X2181580Y5418048D01*
X2176246Y5412968D01*
X2160752Y5407888D01*
X2114016Y5407888D01*
X2150338Y5407888D02*
G01*
X2186660Y5350738D01*
X2283434Y5459704D02*
G01*
X2231364Y5459704D01*
X2226284Y5412968D01*
X2231364Y5418048D01*
X2247112Y5423382D01*
X2262606Y5423382D01*
X2278100Y5418048D01*
X2288514Y5407888D01*
X2293848Y5392140D01*
X2293848Y5381726D01*
X2288514Y5366232D01*
X2278100Y5355818D01*
X2262606Y5350738D01*
X2247112Y5350738D01*
X2231364Y5355818D01*
X2226284Y5360898D01*
X2220950Y5371312D01*
X1232928Y3937012D02*
G01*
X1123962Y3937012D01*
X1232928Y3937012D02*
G01*
X1232928Y3890276D01*
X1227848Y3874782D01*
X1222514Y3869448D01*
X1212100Y3864368D01*
X1201686Y3864368D01*
X1191272Y3869448D01*
X1186192Y3874782D01*
X1181112Y3890276D01*
X1181112Y3937012D01*
X1181112Y3900690D02*
G01*
X1123962Y3864368D01*
X1232928Y3819664D02*
G01*
X1232928Y3762514D01*
X1191272Y3793502D01*
X1191272Y3778008D01*
X1186192Y3767594D01*
X1181112Y3762514D01*
X1165364Y3757180D01*
X1154950Y3757180D01*
X1139456Y3762514D01*
X1129042Y3772928D01*
X1123962Y3788422D01*
X1123962Y3803916D01*
X1129042Y3819664D01*
X1134122Y3824744D01*
X1144536Y3830078D01*
X1082408Y5454510D02*
G01*
X1082408Y5345544D01*
X1082408Y5454510D02*
G01*
X1129144Y5454510D01*
X1144638Y5449430D01*
X1149972Y5444096D01*
X1155052Y5433682D01*
X1155052Y5423268D01*
X1149972Y5412854D01*
X1144638Y5407774D01*
X1129144Y5402694D01*
X1082408Y5402694D01*
X1118730Y5402694D02*
G01*
X1155052Y5345544D01*
X1262240Y5454510D02*
G01*
X1210170Y5345544D01*
X1189342Y5454510D02*
G01*
X1262240Y5454510D01*
X1220228Y3403612D02*
G01*
X1111262Y3403612D01*
X1220228Y3403612D02*
G01*
X1220228Y3356876D01*
X1215148Y3341382D01*
X1209814Y3336048D01*
X1199400Y3330968D01*
X1188986Y3330968D01*
X1178572Y3336048D01*
X1173492Y3341382D01*
X1168412Y3356876D01*
X1168412Y3403612D01*
X1168412Y3367290D02*
G01*
X1111262Y3330968D01*
X1220228Y3270516D02*
G01*
X1215148Y3286264D01*
X1204734Y3291344D01*
X1194320Y3291344D01*
X1183906Y3286264D01*
X1178572Y3275850D01*
X1173492Y3255022D01*
X1168412Y3239528D01*
X1157998Y3229114D01*
X1147584Y3223780D01*
X1131836Y3223780D01*
X1121422Y3229114D01*
X1116342Y3234194D01*
X1111262Y3249942D01*
X1111262Y3270516D01*
X1116342Y3286264D01*
X1121422Y3291344D01*
X1131836Y3296678D01*
X1147584Y3296678D01*
X1157998Y3291344D01*
X1168412Y3280930D01*
X1173492Y3265436D01*
X1178572Y3244608D01*
X1183906Y3234194D01*
X1194320Y3229114D01*
X1204734Y3229114D01*
X1215148Y3234194D01*
X1220228Y3249942D01*
X1220228Y3270516D01*
D12*
X3038215Y350781D02*
G01*
X3038215Y4668781D01*
X1765307Y947681D02*
G01*
X1765307Y388881D01*
X2530104Y388881D01*
X2530104Y947681D01*
X1768104Y947681D01*
X1765307Y947681D01*
X1260220Y4668781D02*
G01*
X1260220Y350781D01*
X1260220Y4668781D02*
G01*
X3038215Y4668781D01*
D10*
X2355237Y6189886D02*
G01*
X3055213Y6189886D01*
X3055213Y5569879D01*
X3055213Y5489884D01*
X2355237Y5489884D01*
X2355237Y5569879D01*
X2355237Y6189886D01*
X3055213Y5569879D02*
G01*
X2355237Y5569879D01*
X1552234Y6184689D02*
G01*
X2252210Y6184689D01*
X2252210Y5564677D01*
X2252210Y5484695D01*
X1552234Y5484695D01*
X1552234Y5564677D01*
X1552234Y6184689D01*
X397230Y6174699D02*
G01*
X1457220Y6174699D01*
X1457220Y5594685D01*
X1457220Y5494690D01*
X397230Y5494690D01*
X397230Y5594685D01*
X397230Y6174699D01*
X1457220Y5594685D02*
G01*
X397230Y5594685D01*
X2252210Y5564677D02*
G01*
X1552234Y5564677D01*
D12*
X1260220Y350781D02*
G01*
X3038215Y350781D01*
D13*
X1092200Y2118360D02*
G01*
X1092200Y2086145D01*
X1066800Y835660D02*
G01*
X1066800Y803445D01*
D12*
X2755900Y5219700D02*
G01*
X2755900Y4965700D01*
X800100Y4572000D02*
G01*
X800100Y4318000D01*
X800100Y3784600D02*
G01*
X800100Y3530600D01*
X1651000Y5219700D02*
G01*
X1651000Y4965700D01*
D13*
X1905000Y5064760D02*
G01*
X1905000Y5032545D01*
X1003300Y4417060D02*
G01*
X1003300Y4384845D01*
X838200Y5077460D02*
G01*
X838200Y5045245D01*
X2959100Y5077460D02*
G01*
X2959100Y5045245D01*
X2197100Y5077460D02*
G01*
X2197100Y5045245D01*
X1003300Y3870960D02*
G01*
X1003300Y3838745D01*
X1155700Y5077460D02*
G01*
X1155700Y5045245D01*
X1003300Y3362960D02*
G01*
X1003300Y3330745D01*
D14*
G75*
G01*
X821197Y1469337D02*
G03*
X821197Y1468829I-19998J-254D01*
G75*
G01*
X833399Y2650523D02*
G03*
X833399Y2650015I-19998J-254D01*
D13*
G75*
G01*
X982203Y2245101D02*
G03*
X982205Y2245677I110007J-196D01*
G75*
G01*
X956803Y962401D02*
G03*
X956805Y962977I110007J-196D01*
D12*
G75*
G01*
X2755900Y4965700D02*
G02*
X2755900Y5219700I-140624J127000D01*
G75*
G01*
X800100Y4318000D02*
G02*
X800100Y4572000I-140624J127000D01*
G75*
G01*
X800100Y3530600D02*
G02*
X800100Y3784600I-140624J127000D01*
G75*
G01*
X1651000Y4965700D02*
G02*
X1651000Y5219700I-140624J127000D01*
D13*
G75*
G01*
X1795003Y5191501D02*
G03*
X1795005Y5192077I110007J-196D01*
G75*
G01*
X893303Y4543801D02*
G03*
X893305Y4544377I110007J-196D01*
G75*
G01*
X728203Y5204201D02*
G03*
X728205Y5204777I110007J-196D01*
G75*
G01*
X2849103Y5204201D02*
G03*
X2849105Y5204777I110007J-196D01*
G75*
G01*
X2087103Y5204201D02*
G03*
X2087105Y5204777I110007J-196D01*
G75*
G01*
X893303Y3997701D02*
G03*
X893305Y3998277I110007J-196D01*
G75*
G01*
X1045703Y5204201D02*
G03*
X1045705Y5204777I110007J-196D01*
G75*
G01*
X893303Y3489701D02*
G03*
X893305Y3490277I110007J-196D01*
D12*
X440181Y1541322D02*
G01*
X882192Y1541322D01*
X882192Y897331D01*
X440181Y897331D01*
X440181Y1541322D01*
X452373Y2722498D02*
G01*
X894384Y2722498D01*
X894384Y2078507D01*
X452373Y2078507D01*
X452373Y2722498D01*
M02*
