G04 Layer: TopSolderMaskLayer*
G04 EasyEDA v6.5.22, 2023-04-09 12:07:21*
G04 a82510d75d89424d952477dd8e89e6f5,b58ac661183547158e32f13718f6ba1e,10*
G04 Gerber Generator version 0.2*
G04 Scale: 100 percent, Rotated: No, Reflected: No *
G04 Dimensions in millimeters *
G04 leading zeros omitted , absolute positions ,4 integer and 5 decimal *
%FSLAX45Y45*%
%MOMM*%

%AMMACRO1*1,1,$1,$2,$3*1,1,$1,$4,$5*1,1,$1,0-$2,0-$3*1,1,$1,0-$4,0-$5*20,1,$1,$2,$3,$4,$5,0*20,1,$1,$4,$5,0-$2,0-$3,0*20,1,$1,0-$2,0-$3,0-$4,0-$5,0*20,1,$1,0-$4,0-$5,$2,$3,0*4,1,4,$2,$3,$4,$5,0-$2,0-$3,0-$4,0-$5,$2,$3,0*%
%ADD10C,1.9016*%
%ADD11MACRO1,0.1016X-0.762X0.762X0.762X0.762*%
%ADD12MACRO1,0.1016X-1.016X1.016X1.016X1.016*%
%ADD13C,2.1336*%
%ADD14MACRO1,0.1016X-0.9X0.9X0.9X0.9*%
%ADD15C,1.9017*%
%ADD16MACRO1,0.2032X0.8X0.8X0.8X-0.8*%
%ADD17C,1.8032*%
%ADD18MACRO1,0.1016X0.889X0.889X0.889X-0.889*%
%ADD19C,1.8796*%

%LPD*%
D10*
G01*
X1092200Y2245105D03*
G01*
X1092200Y1991360D03*
G01*
X1066800Y962405D03*
G01*
X1066800Y708660D03*
D11*
G01*
X2628900Y5092700D03*
G01*
X2628900Y5346700D03*
G01*
X2628900Y4838700D03*
G01*
X673100Y4445000D03*
G01*
X673100Y4699000D03*
G01*
X673100Y4191000D03*
G01*
X673100Y3657600D03*
G01*
X673100Y3911600D03*
G01*
X673100Y3403600D03*
G01*
X1524000Y5092700D03*
G01*
X1524000Y5346700D03*
G01*
X1524000Y4838700D03*
D10*
G01*
X1905000Y5191505D03*
G01*
X1905000Y4937760D03*
G01*
X1003300Y4543805D03*
G01*
X1003300Y4290060D03*
G01*
X838200Y5204205D03*
G01*
X838200Y4950460D03*
G01*
X2959100Y5204205D03*
G01*
X2959100Y4950460D03*
G01*
X2197100Y5204205D03*
G01*
X2197100Y4950460D03*
G01*
X1003300Y3997705D03*
G01*
X1003300Y3743960D03*
G01*
X1155700Y5204205D03*
G01*
X1155700Y4950460D03*
G01*
X1003300Y3489705D03*
G01*
X1003300Y3235960D03*
D12*
G01*
X2530218Y5849881D03*
D13*
G01*
X2880243Y5849868D03*
D14*
G01*
X577237Y5834692D03*
D15*
G01*
X927237Y5834679D03*
G01*
X1277223Y5834679D03*
D13*
G01*
X2077222Y5844687D03*
D12*
G01*
X1727210Y5844687D03*
D16*
G01*
X801197Y1651337D03*
D17*
G01*
X521207Y1651330D03*
G01*
X521207Y787323D03*
G01*
X801192Y787323D03*
D16*
G01*
X813399Y2832524D03*
D17*
G01*
X533400Y2832506D03*
G01*
X533400Y1968500D03*
G01*
X813384Y1968500D03*
D18*
G01*
X1387218Y4287781D03*
D19*
G01*
X1387231Y4033768D03*
G01*
X1387231Y3779768D03*
G01*
X1387231Y3525768D03*
G01*
X1387231Y3271768D03*
G01*
X1387231Y3017768D03*
G01*
X1387231Y2763768D03*
G01*
X1387231Y2509768D03*
G01*
X1387231Y2255768D03*
G01*
X1387231Y2001768D03*
G01*
X1387231Y1747768D03*
G01*
X1387231Y1493768D03*
G01*
X1387231Y1239768D03*
G01*
X1387231Y985768D03*
G01*
X1387231Y731768D03*
G01*
X2911205Y4287768D03*
G01*
X2911205Y4033768D03*
G01*
X2911205Y3779768D03*
G01*
X2911205Y3525768D03*
G01*
X2911205Y3271768D03*
G01*
X2911205Y3017768D03*
G01*
X2911205Y2763768D03*
G01*
X2911205Y2509768D03*
G01*
X2911205Y2255768D03*
G01*
X2911205Y2001768D03*
G01*
X2911205Y1747768D03*
G01*
X2911205Y1493768D03*
G01*
X2911205Y1239768D03*
G01*
X2911205Y985768D03*
G01*
X2911205Y731768D03*
M02*
